<svg id="e77ae42c-4e98-48a3-9205-35740a06ce68" data-name="Layer 1" xmlns="http://www.w3.org/2000/svg" xmlns:xlink="http://www.w3.org/1999/xlink" width="81.1" height="86.35" viewBox="0 0 81.1 86.35"><defs><mask id="aba82a28-cd2b-4e1a-9227-c304b20903fc" x="0" y="5.79" width="81.1" height="73.38" maskUnits="userSpaceOnUse"><g transform="translate(0 0)"><g id="e21cba74-4cf6-49f1-a4f2-798fb28b51a4" data-name="mask-2"><polygon id="e1d30491-fafd-4f53-9bd9-ee185739d776" data-name="path-1" points="0 5.79 81.1 5.79 81.1 79.17 0 79.17 0 5.79" fill="#fff" fill-rule="evenodd"/></g></g></mask><mask id="a298ca50-95e0-461c-9f67-f6cf52b13885" x="0" y="0" width="81.1" height="86.35" maskUnits="userSpaceOnUse"><g transform="translate(0 0)"><g id="e21e8f40-efad-4f12-9d04-e93bc39e6275" data-name="mask-4"><polygon id="b710df1b-19b9-4cb5-b04a-1f7da8bd479d" data-name="path-3" points="0 86.36 81.1 86.36 81.1 0 0 0 0 86.36" fill="#fff" fill-rule="evenodd"/></g></g></mask></defs><g id="f4c1f9f5-1ef0-411f-8ad1-25b94ce61a45" data-name="--About-us-v...who-knows..."><g id="aecd36b9-485e-41cb-88bd-67c33935f3e8" data-name="D about us page2"><g id="a11b0121-cb23-4bbb-91c2-ed525fcd03ee" data-name="who-we-are"><g id="fbe0a59a-108d-4fc3-bdef-e8dc4944bf41" data-name="icon-lockups"><g id="a66abda8-441b-49b8-97dd-c2ed7940bb7f" data-name="icon-lockup"><g id="a39e58b1-e26a-4a5b-9295-ba1cc9edbc2b" data-name="30-day-money-back"><path id="b7cac045-105a-49db-9f21-db1b81cee2c1" data-name="Fill-1" d="M21.3,56l4.11-3a5.8,5.8,0,0,0,5.34,3.23c2.32,0,4-1.26,4-3.4,0-1.84-1.16-3.1-3.71-3.1H27.83V45.45H31c2.66,0,3.64-1.6,3.64-3.33,0-1.43-1.32-2.89-3.84-2.89-2.72,0-3.95,1-5,3.06l-4.12-2c1.81-3.47,4.9-5.14,9.09-5.14,4.89,0,8.47,2.79,8.47,6.8a6.48,6.48,0,0,1-2.9,5.62A5.88,5.88,0,0,1,39.53,53c0,4.25-3.27,7.58-8.81,7.58-4.32,0-7-1.39-9.42-4.59" transform="translate(0 0)" fill="#053361" fill-rule="evenodd"/><path id="aa07d331-f76d-440c-a8bb-cd05c3ddddee" data-name="Fill-3" d="M54.29,52.32V43.58a3.49,3.49,0,0,0-3.7-3.81,3.58,3.58,0,0,0-3.78,3.81v8.71a3.43,3.43,0,0,0,3.71,3.64,3.49,3.49,0,0,0,3.77-3.61m-12.21.21V43.41a8.13,8.13,0,0,1,8.47-8.3A8.1,8.1,0,0,1,59,43.38v9.15c0,4.86-3.16,8.09-8.47,8.09-5.48,0-8.47-3.33-8.47-8.09" transform="translate(0 0)" fill="#053361" fill-rule="evenodd"/><g id="eab9fb3f-3f6b-4829-b2e3-b5d4a9911c2d" data-name="Group-7"><g mask="url(#aba82a28-cd2b-4e1a-9227-c304b20903fc)"><path id="bbf7de12-8e1a-4ad5-9ef3-0eeac5022cc0" data-name="Fill-5" d="M3.86,20.27H77.24V12.55a2.9,2.9,0,0,0-2.9-2.9H6.76a2.9,2.9,0,0,0-2.9,2.9Zm70.48,58.9H35.53V75.31H74.34a2.9,2.9,0,0,0,2.9-2.9V24.14H0V12.55A6.76,6.76,0,0,1,6.76,5.79H74.34a6.76,6.76,0,0,1,6.76,6.76V72.41a6.76,6.76,0,0,1-6.76,6.76Z" transform="translate(0 0)" fill="#053361" fill-rule="evenodd"/></g></g><g mask="url(#a298ca50-95e0-461c-9f67-f6cf52b13885)"><polygon id="b75dd8dd-e43e-4e8e-997b-518bb4fa2302" data-name="Fill-8" points="62.76 15.45 66.62 15.45 66.62 0 62.76 0 62.76 15.45" fill="#053361" fill-rule="evenodd"/></g><g mask="url(#a298ca50-95e0-461c-9f67-f6cf52b13885)"><polygon id="f0054d23-d4f7-424b-bc58-ffe4811f2b79" data-name="Fill-10" points="14.48 15.45 18.34 15.45 18.34 0 14.48 0 14.48 15.45" fill="#053361" fill-rule="evenodd"/></g><g mask="url(#a298ca50-95e0-461c-9f67-f6cf52b13885)"><path id="f2ec83c1-eb2c-4f78-8089-037caee28c33" data-name="Fill-11" d="M0,39.58H3.86V28H0ZM0,55H3.86V43.45H0ZM0,70.48H3.86V58.89H0Zm12.69,8.69H6.76A6.75,6.75,0,0,1,.53,75l3.56-1.5a2.89,2.89,0,0,0,2.67,1.77h5.93Zm3.86,0H28.14V75.31H16.55Z" transform="translate(0 0)" fill="#fbd601" fill-rule="evenodd"/></g><g mask="url(#a298ca50-95e0-461c-9f67-f6cf52b13885)"><polygon id="b40ba3c0-fa1c-47eb-9400-425ccf8f9ff2" data-name="Fill-12" points="41.11 86.35 32 77.24 41.11 68.12 43.84 70.85 37.46 77.24 43.84 83.62 41.11 86.35" fill="#053361" fill-rule="evenodd"/></g></g></g></g></g></g></g></svg>