<svg id="b30a181e-f44d-4de2-836d-23451a9b048f" data-name="Layer 1" xmlns="http://www.w3.org/2000/svg" xmlns:xlink="http://www.w3.org/1999/xlink" width="86" height="64.25" viewBox="0 0 86 64.25"><defs><mask id="af4f1ba7-2c06-401c-8647-57925b7ba71d" x="0" y="27.81" width="8.8" height="34.23" maskUnits="userSpaceOnUse"><g transform="translate(0)"><g id="beb03847-ed87-4490-a903-a0d99d384496" data-name="mask-2"><polygon id="bdb0ee2b-0fed-4464-9e8a-8b3a51bede7e" data-name="path-1" points="0 27.81 8.8 27.81 8.8 62.05 0 62.05 0 27.81" fill="#fff" fill-rule="evenodd"/></g></g></mask></defs><g id="ba2e02e5-1920-4d3f-95db-d0cb41fe0bd2" data-name="--About-us-v...who-knows..."><g id="f982017a-c985-40bb-b381-4c91de9d9d8f" data-name="D about us page2"><g id="faab7372-3142-408d-936d-1b9d6803b689" data-name="who-we-are"><g id="aa03cee9-2ee6-4f9b-a4a1-0ee250d07af0" data-name="icon-lockups"><g id="a493619b-bc15-41f2-a284-b5cd548e7786" data-name="Group-18"><path id="afdff7ab-a310-44d8-ba2c-34c74b6e4a3a" data-name="Fill-1" d="M12,12.85a45.3,45.3,0,0,0-7,11L8.46,25.7a40.9,40.9,0,0,1,6.37-9.92Z" transform="translate(0)" fill="gold" fill-rule="evenodd"/><path id="ba9109f4-3673-4872-8cf1-27c13ceaa1cd" data-name="Fill-3" d="M27.68,7.68,26.12,4a40.59,40.59,0,0,0-10.3,6.81l2.54,3.08a36.35,36.35,0,0,1,9.32-6.16" transform="translate(0)" fill="gold" fill-rule="evenodd"/><path id="fdeed52d-e4f6-48de-b156-9442119c228d" data-name="Fill-5" d="M36.6,4.58a40.42,40.42,0,0,1,5.91-.52L42.45,0a43.53,43.53,0,0,0-6.53.58,42.87,42.87,0,0,0-6.26,1.49l1.26,3.86A41.55,41.55,0,0,1,36.6,4.58" transform="translate(0)" fill="gold" fill-rule="evenodd"/><path id="bf240e65-0096-4008-9896-7735fff15cda" data-name="Fill-7" d="M73.15,13.33a42,42,0,0,0-10-7.4l-1.86,3.5A38,38,0,0,1,70,15.82l3.09-2.44Z" transform="translate(0)" fill="gold" fill-rule="evenodd"/><path id="a27041e6-ba58-4b5b-98d1-249892536474" data-name="Fill-9" d="M46.46,4.14a38.2,38.2,0,0,1,11.3,2.78l1.55-3.85A42.26,42.26,0,0,0,46.81,0Z" transform="translate(0)" fill="gold" fill-rule="evenodd"/><path id="bf3c7d3a-ffb7-4723-82c1-1316411128eb" data-name="Fill-11" d="M81.15,63.26a42.24,42.24,0,0,0,4.24-26.82,42.69,42.69,0,0,0-4.86-13.7L77.1,25.36a38.45,38.45,0,0,1,.21,36Z" transform="translate(0)" fill="#036" fill-rule="evenodd"/><path id="bd38ded4-42fe-4dd5-805e-15e24cb02b67" data-name="Fill-13" d="M59.09,37.43c0,4.86-2.79,10.09-8.3,15.53A59,59,0,0,1,43,59.34,58.41,58.41,0,0,1,35.16,53c-5.51-5.44-8.3-10.67-8.3-15.53a7.74,7.74,0,0,1,7.72-7.74c2.85,0,4.78,2.2,6.48,4.14L43,36l1.92-2.17c1.7-1.94,3.63-4.14,6.48-4.14a7.74,7.74,0,0,1,7.72,7.74Zm20-18.38-2.55-3.23L59.76,29.07a11.89,11.89,0,0,0-8.39-3.5c-3.84,0-6.5,2.21-8.4,4.23-1.89-2-4.55-4.23-8.39-4.23A11.86,11.86,0,0,0,22.74,37.43c0,6,3.2,12.22,9.52,18.46a62.37,62.37,0,0,0,9.62,7.67l1.09.69,1.1-.69a62.9,62.9,0,0,0,9.62-7.67c6.32-6.24,9.52-12.45,9.52-18.46,0-.19,0-.37,0-.56a11.76,11.76,0,0,0-1.07-4.4Z" transform="translate(0)" fill="#036" fill-rule="evenodd"/><g id="bb11a59b-2ad2-40b6-9f28-35a037bd225a" data-name="Group-17"><g mask="url(#af4f1ba7-2c06-401c-8647-57925b7ba71d)"><path id="b6008b2e-e835-454f-a893-4aff47397a8f" data-name="Fill-15" d="M7,29.25,3,27.81a37.75,37.75,0,0,0-1.63,4.88A39.45,39.45,0,0,0,.62,49.82,40.33,40.33,0,0,0,4.9,62l3.9-1.82A37.63,37.63,0,0,1,4.93,49.15a35.57,35.57,0,0,1,.42-14.46c.08-.34.12-.69.21-1A35.67,35.67,0,0,1,7,29.25" transform="translate(0)" fill="#036" fill-rule="evenodd"/></g></g></g></g></g></g></g></svg>