<svg id="a82d0976-1825-46d7-a34d-e32215632d75" data-name="Layer 1" xmlns="http://www.w3.org/2000/svg" xmlns:xlink="http://www.w3.org/1999/xlink" width="111.98" height="84.13" viewBox="0 0 111.98 84.13"><defs><mask id="b434ef81-5240-49eb-8242-813f1cb5662c" x="18.56" y="50.7" width="62.24" height="33.43" maskUnits="userSpaceOnUse"><g transform="translate(0 -0.44)"><g id="b911891a-7899-4589-924e-61640009ad20" data-name="mask-2"><polygon id="b80deaf3-aa3b-45b9-a30d-431a68aec618" data-name="path-1" points="18.57 51.14 80.8 51.14 80.8 84.57 18.57 84.57 18.57 51.14" fill="#fff" fill-rule="evenodd"/></g></g></mask></defs><g id="aeac928f-6e3a-4316-bd3c-a4c073061084" data-name="--About-us-v...who-knows..."><g id="f2937dd6-af82-4018-9f98-d73aa2780c22" data-name="D about us page2"><g id="b70c2201-f554-4007-84eb-b9a51bf0ee3e" data-name="who-we-are"><g id="ec8c42d9-034e-4856-abf5-5c8b7a7e67f6" data-name="icon-lockups"><g id="f274644e-3c42-4d68-afb0-11098765c464" data-name="icon-lockup"><g id="aaba53de-3a8b-4371-939d-ef700d7e7344" data-name="Group-12"><polygon id="b3658129-712c-4095-9de8-c4df62ac8fc7" data-name="Fill-1" points="72.77 59.5 65.23 43.49 75.68 14.51 80.66 16.28 70.95 43.22 77.56 57.27 72.77 59.5" fill="#13315b" fill-rule="evenodd"/><polygon id="b0d02d82-9989-437e-a6b7-f02d1e3de704" data-name="Fill-2" points="56.35 20.03 14.99 20.03 16.32 14.77 57.67 14.77 56.35 20.03" fill="#13315b" fill-rule="evenodd"/><polygon id="adc81380-1e55-4fdc-91ad-4d2ce26f506e" data-name="Fill-3" points="1.32 31.13 0 36.39 49.65 36.39 50.98 31.13 1.32 31.13" fill="#13315b" fill-rule="evenodd"/><g id="f43e2bdf-599c-40f0-b5a4-bf35dfa92324" data-name="Group-11"><g id="be9044cd-6166-4a75-8382-2cd0908c982e" data-name="Group-6"><g mask="url(#b434ef81-5240-49eb-8242-813f1cb5662c)"><path id="a8945bbe-785b-410a-9e0d-c6502c3e7c0e" data-name="Fill-4" d="M79.39,78A37.17,37.17,0,0,1,35.24,56.4h9.21l1.32-5.26H19.89L18.56,56.4h11A42.47,42.47,0,0,0,80.8,83.06Z" transform="translate(0 -0.44)" fill="#13315b" fill-rule="evenodd"/></g></g><path id="a3e78318-144b-4c13-8a53-bf8884e7a720" data-name="Fill-7" d="M91.16,12.55A36.92,36.92,0,0,0,77.71,6.61l1.16-5.13A42.21,42.21,0,0,1,94.23,8.27Zm12.34,15A36.86,36.86,0,0,0,95,15.66l3.62-3.83a41.91,41.91,0,0,1,9.74,13.62Zm8.2,19.77-5.26-.61a35.8,35.8,0,0,0,.25-4.26,36.3,36.3,0,0,0-1.49-10.3l5.07-1.48A41.24,41.24,0,0,1,112,42.49a41.72,41.72,0,0,1-.28,4.87Zm-8.31,20.57-4.22-3.17a36.19,36.19,0,0,0,6.37-13.18l5.13,1.29a41.56,41.56,0,0,1-7.28,15.06ZM85.71,81.45l-2-4.87a37,37,0,0,0,12.24-8.12l3.75,3.7a42.48,42.48,0,0,1-14,9.29Z" transform="translate(0 -0.44)" fill="#fdd800" fill-rule="evenodd"/><path id="ba57266d-d66e-41ac-8168-42eea597aed2" data-name="Fill-9" d="M42.77,9.93h9.57a37.28,37.28,0,0,1,21.3-4L74.24.7A42.66,42.66,0,0,0,42.77,9.93" transform="translate(0 -0.44)" fill="#13315b" fill-rule="evenodd"/></g></g></g></g></g></g></g></svg>