<svg id="eb48726f-8e27-4d35-aac0-ae4f87035fd0" data-name="Layer 1" xmlns="http://www.w3.org/2000/svg" xmlns:xlink="http://www.w3.org/1999/xlink" width="86" height="85.63" viewBox="0 0 86 85.63"><defs><mask id="ebcde576-6f47-4b74-80e3-b7d0179be01c" x="0" y="0" width="86" height="34.7" maskUnits="userSpaceOnUse"><g transform="translate(0 -0.33)"><g id="ba14a858-65d6-4c0b-8c48-c62bcf2225e4" data-name="mask-2"><polygon id="a86bc492-dcd8-4d1e-b1c0-bd0c92f1f5a7" data-name="path-1" points="0 0.34 86 0.34 86 35.03 0 35.03 0 0.34" fill="#fff" fill-rule="evenodd"/></g></g></mask><mask id="b840b4b2-09a3-40c9-a142-3b813b8250aa" x="0" y="0" width="86" height="85.63" maskUnits="userSpaceOnUse"><g transform="translate(0 -0.33)"><g id="ef97f452-5d66-47d4-80bc-9fbc26e019f3" data-name="mask-4"><polygon id="e02be02b-976b-448e-b010-92540656ff1b" data-name="path-3" points="0 85.96 86 85.96 86 0.34 0 0.34 0 85.96" fill="#fff" fill-rule="evenodd"/></g></g></mask></defs><g id="a3516284-7992-46ec-b0ff-be5aa490a797" data-name="--About-us-v...who-knows..."><g id="ac5bd36c-efdc-4989-91bd-731326b7ccfc" data-name="D about us page2"><g id="e20fa1af-c213-4b94-b194-64431b001e99" data-name="who-we-are"><g id="b2227ddf-388f-46f7-9a04-7ac9e51e226b" data-name="icon-lockups"><g id="e705ae4a-7767-4d41-82e4-332a09466e6f" data-name="icon-lockup"><g id="eb086237-0780-4d45-bf10-3c74921a251d" data-name="Group-12"><path id="b31e0475-73c6-40a5-bd87-51ad87fbb91e" data-name="Fill-1" d="M67.84,85.91H37.25v-4H67.84a6,6,0,0,0,6-6V25.58h4V75.87a10.05,10.05,0,0,1-10,10" transform="translate(0 -0.33)" fill="#13315b" fill-rule="evenodd"/><g id="ea7dbe09-d3cb-4169-ba72-8cbab8170f7b" data-name="Group-5"><g mask="url(#ebcde576-6f47-4b74-80e3-b7d0179be01c)"><path id="b60ea2b9-53c3-4ae1-9bc4-bb15ae1d8ef7" data-name="Fill-3" d="M58.53,4.38H65v7.07L58.53,8.19ZM69,13.49V.37H54.5V6.15L43,.33,0,22.08V35H4V24.54L43,4.84l39,19.7V35h4v-13Z" transform="translate(0 -0.33)" fill="#13315b" fill-rule="evenodd"/></g></g><path id="a4b3f263-1236-4fea-afa3-a279d7488a06" data-name="Fill-6" d="M43.07,25.71A14.09,14.09,0,0,0,29,39.76c0,3.87,2.28,11.05,5.55,17.47,4,7.79,7.29,10.61,8.56,10.61s4.6-2.82,8.57-10.61c3.26-6.42,5.54-13.6,5.54-17.47a14.09,14.09,0,0,0-14.11-14m0,46.15c-2.57,0-6.77-2.22-12.16-12.82-3.63-7.13-6-14.7-6-19.28a18.14,18.14,0,0,1,36.28,0c0,4.58-2.34,12.15-6,19.28-5.39,10.6-9.59,12.82-12.16,12.82" transform="translate(0 -0.33)" fill="#13315b" fill-rule="evenodd"/><path id="e33b636d-ca14-400c-a3ba-216d95b93753" data-name="Fill-8" d="M43,37a2.68,2.68,0,1,0,2.69,2.67A2.69,2.69,0,0,0,43,37m0,9.37a6.7,6.7,0,1,1,6.72-6.7A6.72,6.72,0,0,1,43,46.41" transform="translate(0 -0.33)" fill="#13315b" fill-rule="evenodd"/><g mask="url(#b840b4b2-09a3-40c9-a142-3b813b8250aa)"><path id="b5912fbe-91b9-4c0e-8d72-88d901b0c7e1" data-name="Fill-10" d="M8.69,37.89h4v-12h-4ZM8.69,54h4V41.91h-4ZM8.69,70h4V58h-4Zm7,15.48a10,10,0,0,1-7-9.58V74h4v1.89a6.08,6.08,0,0,0,4.22,5.75Zm4.6.46H32.42V82H20.33Z" transform="translate(0 -0.33)" fill="#fdd800" fill-rule="evenodd"/></g></g></g></g></g></g></g></svg>